<svg xmlns="http://www.w3.org/2000/svg" viewBox="0 0 18.71 15.896">
    <path id="Path_11710" data-name="Path 11710" d="M17.7,7.759a6.461,6.461,0,0,1,.384,2.189c0,3.984-3.649,7.226-8.135,7.226S1.813,13.932,1.813,9.948,5.463,2.723,9.948,2.723a8.774,8.774,0,0,1,4.8,1.406l.621-.5A9.645,9.645,0,0,0,9.948,2C5.014,2,1,5.566,1,9.948S5.014,17.9,9.948,17.9,18.9,14.331,18.9,9.948a7.122,7.122,0,0,0-.565-2.776Z" transform="translate(-1 -2)" fill="#27742d"/>
    <path id="Path_11711" data-name="Path 11711" d="M25.016,5l-8.135,7.321L13.22,9.474,12,10.694l4.881,4.881,9.355-9.762Z" transform="translate(-7.526 -3.78)" fill="#27742d"/>
</svg>
  