<svg xmlns="http://www.w3.org/2000/svg" viewBox="0 0 17.556 17.556">
    <path id="Path_11702" data-name="Path 11702" d="M11.778,2A8.775,8.775,0,0,0,5.364,16.767L3.411,18.607v.949h8.367A8.778,8.778,0,1,0,11.778,2Zm0,16.423H5.251L6.993,16.8l-.609-.609a7.559,7.559,0,0,1-2.251-5.408,7.645,7.645,0,1,1,7.645,7.645Z" transform="translate(-3 -2)" fill="#fff"/>
    <path id="Path_11703" data-name="Path 11703" d="M38.032,45.491a6.932,6.932,0,0,1-2.223-2.308l.949-.949V39.7H33.7a8.006,8.006,0,0,0,8.013,8.013V44.669h-2.86Z" transform="translate(-29.353 -34.362)" fill="#fff"/>
</svg>
  